<?xml version="1.0" encoding="iso-8859-1"?>
<!DOCTYPE svg PUBLIC "-//W3C//DTD SVG 1.1//EN" "http://www.w3.org/Graphics/SVG/1.1/DTD/svg11.dtd">
<svg 
 version="1.1" xmlns="http://www.w3.org/2000/svg" xmlns:xlink="http://www.w3.org/1999/xlink" x="0px" y="0px" width="512px"
	 height="512px" viewBox="0 0 512 512" style="enable-background:new 0 0 512 512;" xml:space="preserve"
><g id="afcae5a789ccd549f9c6e2a2f80864d3"><g></g><g fill="#ed0000"><path style="display: inline;" d="M165.166,82.523L165.777,0.5L100.29,49.211L22.457,22.455l26.76,77.831L0.5,165.779l82.023-0.613
		l47.728,67.233l23.941-78.21l78.209-23.937L165.166,82.523z M147.958,133.829l-10.816,3.312l-3.31,10.816l-11.27,36.824
		L99.885,152.84l-6.425-9.049l-11.095,0.083l-39.252,0.295L66.3,112.995l6.704-9.012l-3.651-10.619L56.769,56.765l36.599,12.582
		l10.619,3.649l9.009-6.699l31.172-23.186l-0.295,39.254l-0.083,11.095l9.049,6.425l31.941,22.674L147.958,133.829z
		 M501.762,501.762c-18.181,18.182-54.768,10.155-81.3-17.832L161.356,210.631l11.548-37.726l37.726-11.548L483.93,420.462
		C511.917,446.994,519.943,483.581,501.762,501.762z"></path></g></g></svg>