<?xml version="1.0" encoding="utf-8"?>
<!-- Generator: Adobe Illustrator 16.0.0, SVG Export Plug-In . SVG Version: 6.00 Build 0)  -->
<!DOCTYPE svg PUBLIC "-//W3C//DTD SVG 1.1//EN" "http://www.w3.org/Graphics/SVG/1.1/DTD/svg11.dtd">
<svg version="1.1" id="Layer_1" xmlns:inkpad="http://taptrix.com/inkpad/svg_extensions"
	 xmlns="http://www.w3.org/2000/svg" xmlns:xlink="http://www.w3.org/1999/xlink" x="0px" y="0px" width="512px" height="512px"
	 viewBox="0 0 512 512" enable-background="new 0 0 512 512" xml:space="preserve">
<g id="Layer" inkpad:layerName="Layer 1">
	
		<path fill="none" stroke="#FF4100" stroke-width="6.7366" stroke-linecap="square" stroke-linejoin="round" stroke-opacity="0.7296" d="
		M43.236,65.296c0-7.519,15.387-54.756,30.953-46.7c14.395,7.449,15.254,58.303,68.881,51.167
		c30.563-4.067,27.269-45.685,47.955-60.508c13.08-9.372,29.301,4.567,42.288,5.279c4.623,0.253,29.413-4.682,31.824-2.437
		c9.494,8.845,6.879,27.898,14.822,37.767c9.039,11.226,28.619,7.836,35.749,21.117c8.413,15.675,4.077,32.71,21.361,43.857
		c26.697,17.217,56.697,31.983,88.935,35.736c14.899,1.735,40.156-19.944,52.751-10.558c0.408,0.304,0.637,0.782,0.871,1.218
		c3.472,6.468,0.979,17.23,1.744,24.365c1.018,9.488,7.24,21.596,10.899,30.457c5.205,12.608,16.026,22.646,12.643,37.36
		c-0.665,2.895-2.742,7.857-4.795,10.153c-10.409,11.634-26.552,21.642-37.929,33.299c-8.886,9.104-10.878,20.294-23.978,26.396
		c-10.633,4.952-25.635,0.767-37.492,6.903c-17.505,9.059-16.946,34.078-54.059,26.396c-7.32-1.516-13.221-8.236-20.054-10.965
		c-21.269-8.49-59.872-18.986-82.396-10.151c-16.537,6.485-17.165,21.94-30.516,31.269c-9.053,6.324-24.04,3.771-32.262,10.152
		c-6.375,4.948,1.259,15.224-6.103,20.711c-11.899,8.867-25.096-3.509-44.031,16.649c-7.237,7.703-1.998,20.621-3.488,29.645
		c-1.115,6.746-10.951,11.241-14.822,16.649c-4.222,5.897-5.283,13.449-10.899,18.681C68.111,490.856-3,484.028-3,505.227"/>
</g>
</svg>
