<?xml version="1.0" encoding="iso-8859-1"?>
<!DOCTYPE svg PUBLIC "-//W3C//DTD SVG 1.1//EN" "http://www.w3.org/Graphics/SVG/1.1/DTD/svg11.dtd">
<svg 
 version="1.1" xmlns="http://www.w3.org/2000/svg" xmlns:xlink="http://www.w3.org/1999/xlink" x="0px" y="0px" width="512px"
	 height="512px" viewBox="0 0 512 512" style="enable-background:new 0 0 512 512;" xml:space="preserve"
><g fill="#5b9ed9" id="afcae5a789ccd549f9c6e2a2f80ac1ff"><g></g><path style="display: inline;" d="M476.828,38.194c-7.623-17.067-20.866-29.139-37.316-34.019
		c-6.793-2.442-13.99-3.676-21.399-3.676c-29.312,0-56.502,18.749-66.189,45.614c-3.485,7.726-6.572,15.815-9.844,24.388
		c-12.219,32.034-26.063,68.334-67.57,100.497l-19.833,15.361l-17.413-13.55c-41.438-32.247-55.201-68.579-67.344-100.634
		c-3.25-8.582-6.323-16.685-9.79-24.41C150.481,20.807,123.27,1.992,93.891,1.992c-7.353,0-14.505,1.226-21.268,3.632
		c-16.444,4.848-29.72,16.889-37.388,33.929c-7.107,15.81-8.507,34.187-3.858,50.446c6.62,30.853,34.866,54.996,64.369,54.996
		c3.961,0,7.917-0.443,11.758-1.309c22.119-5,28.21-11.748,32.668-16.676c2.331-2.593,3.742-4.156,7.184-5.124
		c0.311-0.089,0.595-0.133,0.874-0.133c5.19,0,13.022,14.758,22.089,31.865c10.057,18.945,23.819,44.874,45.016,74.332
		L89.797,405.179l-0.164,0.25c-21.183,34.572-22.888,69.487-4.817,98.303l3.473,5.54l166.796-226.952L422.729,511.5l3.484-5.527
		c18.138-28.779,16.503-63.694-4.6-98.316l-0.074-0.128L294.989,228.021l0.858-1.168c21.528-29.685,35.469-55.818,45.645-74.9
		c9.106-17.071,16.966-31.816,22.16-31.816c0.28,0,0.568,0.035,0.88,0.124c3.436,0.986,4.843,2.549,7.174,5.142
		c4.44,4.942,10.519,11.704,32.625,16.751c3.88,0.888,7.871,1.341,11.871,1.341c29.459,0,57.7-24.078,64.374-54.851
		C485.266,72.398,483.906,54.018,476.828,38.194z M138.275,78.18l-0.004,0.266c0,12.663-6.349,20.761-11.677,25.321
		c-7.148,6.118-16.965,9.63-26.941,9.63c-11.269,0-21.853-4.396-29.817-12.37c-9.155-9.182-13.685-24.17-11.53-38.2
		c1.788-11.686,7.906-20.814,17.217-25.68l0.303-0.177c5.501-3.464,11.565-5.213,18.012-5.213c11.256,0,23.221,5.567,32.012,14.905
		C134.409,55.75,138.938,67.24,138.275,78.18z M442.096,99.58c-7.956,7.938-18.522,12.308-29.755,12.308
		c-11.114,0-21.688-4.205-29.006-11.544c-6.318-6.327-9.648-14.452-9.626-23.496l-0.01-0.267
		c-0.63-10.922,3.916-22.386,12.463-31.443c8.796-9.324,20.757-14.877,32.003-14.877c6.481,0,12.564,1.762,18.083,5.251l0.307,0.178
		c9.298,4.888,15.389,14.029,17.16,25.724C455.832,75.444,451.272,90.424,442.096,99.58z"></path></g></svg>